<mxfile host="app.diagrams.net" modified="2023-12-17T00:19:29.258Z" agent="Mozilla/5.0 (X11; Linux x86_64) AppleWebKit/537.36 (KHTML, like Gecko) Chrome/119.0.0.0 Safari/537.36" version="22.1.11" etag="HZsyj8zP_F8IXpD2DJjC" type="github">
  <diagram name="Page-1" id="kd7MD2bq9uw6VuwrA-x1">
    <mxGraphModel>
      <root>
        <mxCell id="0" />
        <mxCell id="1" parent="0" />
      </root>
    </mxGraphModel>
  </diagram>
</mxfile>
